<?xml version="1.0" encoding="utf-8"?>
<!-- Generator: Adobe Illustrator 18.1.0, SVG Export Plug-In . SVG Version: 6.00 Build 0)  -->
<svg version="1.1" id="Layer_1" xmlns="http://www.w3.org/2000/svg" xmlns:xlink="http://www.w3.org/1999/xlink" x="0px" y="0px"
	 viewBox="-485 235.9 28.6 31.1" enable-background="new -485 235.9 28.6 31.1" xml:space="preserve">
<g>
	<path d="M-457.7,244.8c0-0.2,0-0.3,0-0.5v-0.1c0-0.1,0-0.2,0-0.3c0-1-0.4-2-1.1-2.6c-0.7-0.7-1.6-1.1-2.6-1.2
		c-2.8-0.1-5.4-1.2-7.5-3.2c-1-0.9-2.6-0.9-3.7,0c-2,2-4.7,3.1-7.5,3.1c-1,0.1-1.9,0.5-2.5,1.2s-1.1,1.6-1.1,2.6c0,0.3,0,0.6,0,0.9
		v0.1c-0.1,3.5-0.2,7.7,1.3,11.7c0.8,2.1,2,4.2,3.6,5.8c2,1.9,4.5,3.4,7.1,4.2c0.1,0,0.2,0.1,0.4,0.1c0.2,0.1,0.5,0.1,0.6,0.1
		c0.1,0,0.4,0,0.6-0.1c0.2-0.1,0.3-0.1,0.4-0.1c2.6-0.9,5.1-2.3,7.1-4.2c1.6-1.6,2.9-3.6,3.6-5.8
		C-457.6,252.6-457.7,248.3-457.7,244.8z M-470.7,240.2c0.2,0,0.3,0.1,0.4,0.2c2,2,4.6,3.1,7.3,3.1c0.4,0,0.9,0.2,1.1,0.5
		c0.3,0.3,0.5,0.8,0.5,1.2v0.4c0,0.1,0,0.3,0,0.4c0.1,2.8,0.1,6.2-1,9.2c-0.6,1.6-1.5,3.1-2.7,4.2c-1.5,1.4-3.9,2.6-5.3,3.2
		c-0.1,0-0.2,0.1-0.3,0.1c-0.1,0-0.2-0.1-0.3-0.1c-2-0.7-3.8-1.8-5.3-3.1c-1.2-1.2-2.1-2.6-2.7-4.2c-1.1-3.1-1-6.5-1-9.2
		c0-0.3,0-0.5,0-0.9c0-0.4,0.2-0.9,0.5-1.2s0.7-0.5,1.1-0.5c2.8-0.1,5.3-1.2,7.3-3.1c0.1-0.1,0.3-0.3,0.4-0.3L-470.7,240.2
		L-470.7,240.2z"/>
	<path d="M-473.2,252.3c-0.6-0.3-1.4-0.1-1.7,0.5c-0.3,0.6-0.1,1.4,0.5,1.7l3.1,1.6c0.2,0.1,0.4,0.2,0.6,0.2
		c0.4,0,0.8-0.2,1.1-0.7l4-6.8c0.3-0.6,0.2-1.4-0.5-1.7c-0.7-0.3-1.4-0.2-1.7,0.5l-3.3,5.8L-473.2,252.3z"/>
</g>
</svg>
