<?xml version="1.0" encoding="utf-8"?>
<!-- Generator: Adobe Illustrator 18.1.0, SVG Export Plug-In . SVG Version: 6.00 Build 0)  -->
<svg version="1.1" id="Layer_1" xmlns="http://www.w3.org/2000/svg" xmlns:xlink="http://www.w3.org/1999/xlink" x="0px" y="0px"
	 viewBox="-491 242.4 16.6 16.6" enable-background="new -491 242.4 16.6 16.6" xml:space="preserve">
<path d="M-481.5,250.8l6.9-6.8c0,0,0,0,0,0c0.4-0.4,0.4-1,0-1.3c-0.4-0.4-1-0.4-1.4,0l-4.2,4.1l-2.4,2.4l-6.5-6.5h0
	c-0.4-0.4-1-0.4-1.4,0c0,0,0,0,0,0c-0.4,0.4-0.4,1,0,1.3l6.6,6.6l-6.9,6.8c0,0,0,0,0,0c-0.4,0.4-0.4,1,0,1.3c0.4,0.4,1,0.4,1.4,0
	l4.2-4.1l2.4-2.4l6.5,6.5h0c0.4,0.4,1,0.4,1.4,0c0,0,0,0,0,0c0.4-0.4,0.4-1,0-1.3L-481.5,250.8z"/>
</svg>
