<?xml version="1.0" encoding="utf-8"?>
<!-- Generator: Adobe Illustrator 18.1.0, SVG Export Plug-In . SVG Version: 6.00 Build 0)  -->
<svg version="1.1" id="Layer_1" xmlns="http://www.w3.org/2000/svg" xmlns:xlink="http://www.w3.org/1999/xlink" x="0px" y="0px"
	 viewBox="0 0 500 500" enable-background="new 0 0 500 500" xml:space="preserve">
<circle fill="#7474E2" cx="245.2" cy="293.8" r="196.2"/>
<path fill="#C156A0" d="M286.3,485.9v-78.4h-64.6v57.2c-0.3,10.3,0.3,23.8,0.3,23.8s2.9,0.3,7.6,0.9c5.3,0.6,13.2,1.2,21.7,1.2
	C271.6,490.3,286.3,485.9,286.3,485.9z"/>
<path fill="#FF96CE" d="M241.8,448.9c12.6,0.9,22.9-1.2,35.3-6.5v37.9c0,2.6,0,7.6,0,7.6s-10.3,2.4-24.1,2.4
	c-9.7,0-23.2-1.2-23.2-1.2s0-5.6,0-8.5v-33.2C232.9,448.6,238.4,448.9,241.8,448.9z"/>
<path fill="#C156A0" d="M143,195.9l105.5-15l105.5,15c0,0,2.1,86.7,2.1,134c0,33.8-38.2,108.7-110.5,108.7
	c-86.7,0-106.6-88.4-106.6-115.2C139.1,276.1,143,195.9,143,195.9z"/>
<path fill="#3D3D9B" d="M357.4,294.1c7.9-24.4,19.7-57.6,22.9-82.8c0.9-6.2,1.5-12.6,0.3-19.1c-1.2-6.2-5-11.2-10-14.7
	c23.2-16.2,35.3-46.7,28.8-74c-15.3,9.7-31.1,17.3-47.9,23.8c16.2-14.7,26.7-35.3,29.4-56.7s-3.8-43-15.8-61.2
	C340.4,42.6,311,72.6,277,96.1c6.8-10.6,9.7-24.1,7.3-36.4c-2.1-12.6-8.5-23.2-18.5-30.8c-0.6,14.7-11.8,27.6-25,34.4
	s-28.2,8.8-42.9,11.5s-29.7,5.9-41.4,14.7c-12,8.8-24.1,25.9-20,40.2c-34.1-0.6-39.1,17.9-29.4,55.2c9.4,37.3,33.5,109.6,33.5,109.6
	l17.6-88.4c0,0,116,37.3,176.9,8.8L357.4,294.1z"/>
<path fill="#C156A0" d="M316,299.4c0,0,19.7-17,45.2-5.6c22.6,10,19.1,38.2,5.6,54.3c-8.2,10-19.7,14.7-32.3,15.6
	c-14.4,0.9-30.3-3.2-30.3-3.2L316,299.4z"/>
<path fill="#C156A0" d="M175.9,299.4c0,0-19.7-17-45.2-5.6c-22.6,10-19.1,38.2-5.6,54.3c8.2,10,19.7,14.7,32.3,15.6
	c14.4,0.9,30.3-3.2,30.3-3.2L175.9,299.4z"/>
<path fill="#F9B2DB" d="M161.2,223c-4.4,6.5-8.5,17.3-10,24.7c-6.8,35.3-10.3,72-0.6,106.6c9.7,34.4,34.4,66.4,68.7,76.7
	c27.6,8.2,59,0.9,82.3-16.5c23.2-17.3,38.8-43.8,45.2-72c6.5-28.2,4.7-57.9-2.6-86.1c-2.4-9.4-5.9-19.4-14.1-24.7
	c-6.2-3.8-13.8-4.4-20.9-5C295.8,226.5,170.3,215.6,161.2,223z"/>
<circle fill="#292968" cx="290.8" cy="290" r="13.2"/>
<circle fill="#292968" cx="206.1" cy="290" r="13.5"/>
<g>
	<g>
		<g>
			<path fill="#292968" d="M169.8,269.7l58.8-11.8C228.2,257.9,207,226.2,169.8,269.7z"/>
		</g>
	</g>
</g>
<g>
	<g>
		<g>
			<path fill="#292968" d="M333,269.7l-58.8-11.8C274.3,257.9,295.4,226.2,333,269.7z"/>
		</g>
	</g>
</g>
<path fill="#FFDEF6" d="M247.3,351.6c-0.3,0.3-0.9,0.3-1.5,0c-1.2-0.3-2.1-1.2-2.4-1.8c-0.6-1.8,0.6-4.1,1.5-6.2v-0.3
	c8.2-16.2,10.9-33.8,7.6-50.8c-0.3-1.2-1.8-1.8-3.2-1.8c-1.5,0.3-2.6,1.2-2.4,2.4c3.2,16.5,0.6,33.5-7.3,49.1v0.3
	c-1.2,2.6-2.6,5.6-1.8,8.5c0.9,2.1,3.2,3.8,5.9,4.7c0.9,0.3,1.8,0.3,2.4,0.3c1.5,0,2.9-0.3,4.1-0.9c1.2-0.6,1.5-2.1,0.6-2.9
	C250.2,351.1,248.8,350.8,247.3,351.6z"/>
<path id="XMLID_29_" fill="#FFEEFB" d="M270.5,378.4c-17,6.5-35.8,3.8-46.7-5.6c0,0-3.8,24.4,18.5,28.5
	C263.8,405.4,270.5,378.4,270.5,378.4z"/>
<g>
	<path fill="#9693FF" d="M267.5,46.7c-12.9,16.7-31.7,29.1-52.6,34.4c-14.4,3.8-30,4.4-43.5,10.3c-13.8,5.9-25.9,19.7-22.6,33.8
		c13.2-8.8,32-15,47.3-19.7c-4.4,5.9-16.7,19.1-17.6,30.6c15.6-13.8,33.5-25.9,52.6-34.4c-17.9,15.9-33.5,34.1-46.7,53.8
		C220.8,121.9,270.2,67.9,267.5,46.7z"/>
	<path fill="#9693FF" d="M360.1,137.5c6.8-6.8,13.5-13.8,20.3-20.6c-18.2,13.2-37.9,23.8-59,31.1c26.1-20.3,42.6-52.3,46.1-85.2
		c-15.6,21.7-35,40.8-57,56.1c23.2-26.4,46.4-55.2,53.8-89.9c-32,32.9-125.1,105.8-182.1,143.4c19.1-8.8,39.1-15,59.6-18.2
		c-17.3,11.8-35,23.5-52.3,35.3l55.5-12.6c-11.5,12.6-28.2,23.5-44.7,27.9c74,8.8,151.9-26.4,193.6-88.1
		C384.2,126,372.8,133.1,360.1,137.5z"/>
</g>
<path fill="#3D3D9B" d="M276.6,57.6c-12.6,26.1-30.3,49.9-51.7,69.3C252.5,114.3,271.6,87.5,276.6,57.6z"/>
<path fill="#3D3D9B" d="M265.8,210.3c49.6-8.8,95.5-36.7,126.3-76.7c-9.1,25-27,47.9-49.4,62C320.1,210,292.2,212.7,265.8,210.3z"/>
<path fill="#9693FF" d="M118,146.9c-5,7.3-5.6,16.7-3.8,25.6c1.8,8.5,5.9,16.7,10,24.4c-4.1-12-3.2-25.6,2.6-36.7
	c-0.6,7.6,0,15.6,1.8,23.2c-0.3-8.2,4.4-16.2,11.8-20c-8.2,22.9-9.4,48.5-2.9,71.7c0.3-19.7,6.5-39.4,17-55.8c-0.6,5,0,10,1.8,14.7
	c1.2-3.8,2.4-7.6,3.8-11.5c3.2,9.1,11.8,16.5,21.4,18.2c-9.7-12.6-18.5-26.1-26.4-40c-2.1,4.1-4.1,8.5-6.2,12.6
	c0.9-8.5,1.5-17.3,2.4-25.9c-7.3,1.5-14.4,2.9-21.7,4.4l9.7-6.8l-11.2,0.9c0,0,4.7-3.2,8.5-4.1c4.7-1.2,8.8-1.8,13.5-1.8
	C138.3,135.7,125.6,135.7,118,146.9z"/>
<path fill="#EEEEFF" d="M254,132.8c28.8-15.9,55.5-35.8,78.7-59C321.9,105.2,287.5,131.6,254,132.8z"/>
<path fill="#EEEEFF" d="M248.8,163.3c30.8-9.1,59-25.9,82-48.2c-8.5,19.4-23.2,35.3-41.4,45.8c9.4,0.3,19.1,0.3,28.5,0.6
	C296.9,169.2,269.6,170.4,248.8,163.3z"/>
</svg>
