<?xml version="1.0" encoding="utf-8"?>
<!-- Generator: Adobe Illustrator 18.1.0, SVG Export Plug-In . SVG Version: 6.00 Build 0)  -->
<svg version="1.1" id="Layer_1" xmlns="http://www.w3.org/2000/svg" xmlns:xlink="http://www.w3.org/1999/xlink" x="0px" y="0px"
	 viewBox="0 0 501 500" enable-background="new 0 0 501 500" xml:space="preserve">
<!-- <circle id="Oval-Copy-3" fill="#499DF9" cx="250.9" cy="249.8" r="243"/> -->
<path id="Shape" fill="#FFFFFF" d="M340,199.6c0-48.6-40.5-89.1-89.1-89.1s-89.1,40.5-89.1,89.1c0,42.1,29.2,77.8,69.7,87.5v77.8
	c0,14.6,11.3,25.9,25.9,25.9h25.9c6.5,0,13-6.5,13-13v-25.9c0-6.5-6.5-13-13-13h-13v-53.5C310.8,277.3,340,240.1,340,199.6z
	 M250.9,249.8c-27.5,0-50.2-22.7-50.2-50.2c0-27.5,22.7-50.2,50.2-50.2s50.2,22.7,50.2,50.2C302.7,227.1,278.4,249.8,250.9,249.8
	L250.9,249.8L250.9,249.8z"/>
</svg>
