<?xml version="1.0" encoding="utf-8"?>
<!-- Generator: Adobe Illustrator 18.1.0, SVG Export Plug-In . SVG Version: 6.00 Build 0)  -->
<svg version="1.1" id="Layer_1" xmlns="http://www.w3.org/2000/svg" xmlns:xlink="http://www.w3.org/1999/xlink" x="0px" y="0px"
	 viewBox="0 0 500 500" enable-background="new 0 0 500 500" xml:space="preserve">
<path fill="#FFFFFF" d="M122.5,127v108.4H240V127H122.5z M208,205.9h-53.6v-49.4H208V205.9z"/>
<path fill="#FFFFFF" d="M122.5,262.6V371H240V262.6H122.5z M208,341.5h-53.6v-49.4H208V341.5z"/>
<path fill="#FFFFFF" d="M258,127v108.4h117.5V127H258z M343.6,205.9H290v-49.4h53.6V205.9z"/>
<rect id="Rectangle_140" x="312.3" y="343.9" fill="#FFFFFF" width="63.3" height="27.1"/>
<rect id="Rectangle_150" x="268.9" y="307.7" fill="#FFFFFF" width="63.3" height="27.1"/>
<rect id="Rectangle_142" x="258" y="343.9" fill="#FFFFFF" width="32.5" height="27.1"/>
<rect id="Rectangle_141" x="346.6" y="307.7" fill="#FFFFFF" width="28.9" height="54.2"/>
<rect id="Rectangle_149" x="305" y="271.6" fill="#FFFFFF" width="27.1" height="54.2"/>
<rect id="Rectangle_143" x="346.6" y="262.6" fill="#FFFFFF" width="28.9" height="27.1"/>
<rect id="Rectangle_151" x="258" y="262.6" fill="#FFFFFF" width="32.5" height="27.1"/>
</svg>
