<?xml version="1.0" encoding="utf-8"?>
<!-- Generator: Adobe Illustrator 18.1.0, SVG Export Plug-In . SVG Version: 6.00 Build 0)  -->
<svg version="1.1" id="Layer_1" xmlns="http://www.w3.org/2000/svg" xmlns:xlink="http://www.w3.org/1999/xlink" x="0px" y="0px"
	 viewBox="0 0 500 500" enable-background="new 0 0 500 500" xml:space="preserve">
<path fill="#FFFFFF" d="M372,112.6L372,112.6c-16-10.3-37.4-5.6-47.7,10.4L211.8,298.4L166,267.4c-15.8-10.7-37.2-6.5-47.9,9.3l0,0
	c-10.7,15.8-6.5,37.2,9.3,47.9l71,47.9c1.4,1.3,2.9,2.4,4.6,3.5l0,0c5.8,3.7,12.4,5.5,18.8,5.5c11.2,0.1,22.3-5.2,29-15.2l0,0
	c1.3-2,2.4-4,3.3-6.1l128.3-199.9C392.7,144.2,388,122.9,372,112.6z"/>
</svg>
