<?xml version="1.0" encoding="utf-8"?>
<!-- Generator: Adobe Illustrator 18.1.0, SVG Export Plug-In . SVG Version: 6.00 Build 0)  -->
<svg version="1.1" id="Layer_1" xmlns="http://www.w3.org/2000/svg" xmlns:xlink="http://www.w3.org/1999/xlink" x="0px" y="0px"
	 viewBox="0 0 414 896" enable-background="new 0 0 414 896" xml:space="preserve">
<linearGradient id="SVGID_1_" gradientUnits="userSpaceOnUse" x1="-38.7397" y1="22.3664" x2="452.7397" y2="873.6336">
	<stop  offset="0" style="stop-color:#A1FEE4"/>
	<stop  offset="0.9965" style="stop-color:#7AAFFC"/>
	<stop  offset="0.9965" style="stop-color:#BBE5FA"/>
</linearGradient>
<rect fill="url(#SVGID_1_)" width="414" height="896"/>
<linearGradient id="SVGID_2_" gradientUnits="userSpaceOnUse" x1="-7.053" y1="883.7838" x2="257.2994" y2="731.1598">
	<stop  offset="0" style="stop-color:#00FCF3"/>
	<stop  offset="0.9956" style="stop-color:#9693FF"/>
</linearGradient>
<path opacity="0.49" fill="url(#SVGID_2_)" d="M321.3,844.2c-31.7-39.6-146.5-51-173.3-79.7C121.4,736.4,92.1,653.7,37,656.6
	c-11.4,0.6-24.1,3.5-37,8.4V896h343.8C340.3,875.9,332.2,857.8,321.3,844.2z"/>
<linearGradient id="SVGID_3_" gradientUnits="userSpaceOnUse" x1="225.4336" y1="121.4906" x2="419.4653" y2="9.4662">
	<stop  offset="0" style="stop-color:#00FCF3"/>
	<stop  offset="0.9956" style="stop-color:#9693FF"/>
</linearGradient>
<path opacity="0.38" fill="url(#SVGID_3_)" d="M304,162.3c39.9,18.8,78.9,16.2,110,2.7V0H171.9C173.2,65.2,239.7,132,304,162.3z"/>
</svg>
