<?xml version="1.0" encoding="utf-8"?>
<!-- Generator: Adobe Illustrator 18.1.0, SVG Export Plug-In . SVG Version: 6.00 Build 0)  -->
<svg version="1.1" id="Layer_1" xmlns="http://www.w3.org/2000/svg" xmlns:xlink="http://www.w3.org/1999/xlink" x="0px" y="0px"
	 viewBox="0 0 500 500" enable-background="new 0 0 500 500" xml:space="preserve">
<path fill="#FFFFFF" d="M342.4,362.1c-3.2,0-4.8,0-8,0c-1.6,0-4.8,0-6.4,0h-60.8l65.6-65.6c3.2-3.2,4.8-9.6,3.2-14.4
	c-1.6-4.8-6.4-8-11.2-8h-32v-68.8c0-8-6.4-14.4-14.4-14.4h-44.8c-8,0-14.4,6.4-14.4,14.4v68.8H184c-8,0-12.8,6.4-12.8,12.8
	c0,4.8,1.6,8,4.8,11.2l64,64h-96c-35.2,0-64-28.8-64-64c0-28.8,19.2-52.8,46.4-60.8c3.2-27.2,28.8-46.4,56-43.2
	c4.8,0,11.2,1.6,16,4.8c17.6-48,70.4-72,118.4-56c33.6,12.8,57.6,41.6,60.8,78.4c36.8,17.6,52.8,62.4,35.2,99.2
	C398.4,346.1,371.2,362.1,342.4,362.1L342.4,362.1z"/>
</svg>
