<?xml version="1.0" encoding="utf-8"?>
<!-- Generator: Adobe Illustrator 18.1.0, SVG Export Plug-In . SVG Version: 6.00 Build 0)  -->
<svg version="1.1" id="Layer_1" xmlns="http://www.w3.org/2000/svg" xmlns:xlink="http://www.w3.org/1999/xlink" x="0px" y="0px"
	 viewBox="0 0 1000 500" enable-background="new 0 0 1000 500" xml:space="preserve">
<g>
	<path fill="#FFEA01" d="M702.3,138.1c0-2.7,0-5.4,0-8.1v-1.4c0-1.4,0-2.7,0-4.1c0-16.2-6.7-31.2-17.6-41.9
		c-10.9-10.9-25.7-17.6-41.9-19c-44.7-1.4-86.6-19-119.2-51.4c-16.2-14.9-41.9-14.9-59.5,0c-32.5,31.2-74.5,50.1-119.2,50.1
		c-16.2,1.4-29.8,8.1-40.7,19c-10.9,10.9-17.6,25.7-17.6,41.9c0,5.4,0,9.5,0,13.6v1.4c-1.4,55.5-2.7,123.2,20.3,186.8
		c12.2,33.8,32.5,66.4,58.3,92.1c32.5,29.8,71.8,54.2,113.7,67.8c1.9,0.6,3.9,1.1,6.6,1.8c3.1,0.8,7.3,1.2,9.9,1.2
		c2.3,0,6.1-0.4,9.1-1.2c2.6-0.8,4.2-1.4,5.7-1.7c41.9-13.6,81.2-36.6,113.7-67.8c25.7-25.7,46.1-58.3,58.3-92.1
		C703.6,262.7,702.3,193.6,702.3,138.1z M493.8,65c2.7,0,5.4,1.4,6.7,2.7c31.2,31.2,73.1,48.8,116.4,50.1c6.7,0,13.6,2.7,17.6,8.1
		c5.4,5.4,8.1,12.2,8.1,19v6.7c0,1.4,0,4.1,0,6.7c1.4,44.7,1.4,98.8-16.2,147.6c-9.5,25.7-24.3,48.8-43.3,67.8
		c-24.4,23-62.6,41.5-85.4,51.4c-1.1,0.5-3.2,1.4-4.3,1.4c-1,0-3.6-0.9-5.2-1.4c-31.2-10.9-60.9-28.5-85.4-50.1
		c-19-19-33.8-41.9-43.3-67.8c-17.6-48.8-16.2-104.2-16.2-147.6c0-4.1,0-8.1,0-13.6c0-6.7,2.7-13.6,8.1-19
		c5.4-5.4,10.9-8.1,17.6-8.1c44.7-1.4,85.4-19,116.4-50.1c1.4-1.4,4.2-4.1,6.8-4.1h0.7L493.8,65z"/>
	<path fill="#FFEA01" d="M454.5,257.3c-9.5-5.4-21.7-1.4-27.1,8.1c-5.4,9.5-1.4,21.7,8.1,27.1l48.8,25.7c2.7,1.4,6.7,2.7,9.5,2.7
		c6.7,0,12.2-2.5,17.6-10.9L575,201.7c5.4-9.5,2.7-21.7-8.1-27.1c-10.9-5.4-21.7-2.7-27.1,8.1l-52.8,92.1L454.5,257.3z"/>
</g>
</svg>
