<?xml version="1.0" encoding="utf-8"?>
<!-- Generator: Adobe Illustrator 18.1.0, SVG Export Plug-In . SVG Version: 6.00 Build 0)  -->
<svg version="1.1" id="Layer_1" xmlns="http://www.w3.org/2000/svg" xmlns:xlink="http://www.w3.org/1999/xlink" x="0px" y="0px"
	 viewBox="0 0 403.3 500" enable-background="new 0 0 403.3 500" xml:space="preserve">
<g>
	<circle fill="#7474E2" cx="201.2" cy="235.8" r="195"/>
	<g>
		<path fill="#C156A0" d="M308.5,238.3c0,0,7.1-14.7,14.9-4.8c7.8,10,6.3,50.6-18.7,50.7C304.7,284.2,308.3,247.9,308.5,238.3z"/>
		<path fill="#C156A0" d="M308.6,253.1c0,0,5.1-14.5,10.1-7c5,7.4,2.5,17.1-5,23.7C313.6,269.8,317,243.5,308.6,253.1z"/>
	</g>
	<g>
		<path fill="#C156A0" d="M95.7,235c0,0-7.1-14.7-14.9-4.8c-7.8,10-6.3,50.6,18.6,50.7C99.5,280.9,95.8,244.7,95.7,235z"/>
		<path fill="#C156A0" d="M95.6,249.9c0,0-5.1-14.5-10.1-7c-5,7.4-2.5,17.1,5,23.7C90.6,266.5,87.2,240.2,95.6,249.9z"/>
	</g>
	<path fill="#C156A0" d="M315.7,230.4C320.8,60,204.1,72.4,204,72.4c0,0-116.7-12.3-111.7,158c0,0-3.7,58.7,10.6,79.3
		c14.3,20.6,72.2,71.7,101.1,71.7c28.8,0,86.8-51.2,101.1-71.7C319.4,289.1,315.7,230.4,315.7,230.4z"/>
	<path fill="#C156A0" d="M232.9,426.8v-77.9h-64.1v56.7c-0.4,10.1,0.2,23.5,0.2,23.5s2.9,0.2,7.6,0.8c5.4,0.6,13.1,1.2,21.7,1.2
		C218.5,431,232.9,426.8,232.9,426.8z"/>
	<path fill="#FF96CE" d="M188.7,390c12.4,0.8,22.8-1.3,34.9-6.5v37.8c0,2.5,0,7.5,0,7.5s-10.2,2.2-23.8,2.2
		c-9.6,0-23.2-1.2-23.2-1.2s-0.1-5.5-0.1-8.6v-32.9C179.9,389.5,185.3,389.8,188.7,390z"/>
	<path fill="#F9B2DB" d="M118.6,156.1c-4.3,6.3-8.4,17.2-9.8,24.6c-6.8,35-10.2,71.6-0.6,105.9c9.6,34.3,34.2,66.1,68.4,76.1
		c27.6,8.1,58.6,1,81.6-16.2c23.1-17.2,38.4-43.6,44.9-71.6c6.5-28,4.6-57.6-2.5-85.4c-2.4-9.3-5.9-19.2-13.9-24.4
		c-6-3.9-13.6-4.4-20.8-4.8C252.3,159.4,127.7,148.8,118.6,156.1z"/>
	<path fill="#FFDEF6" d="M202.4,293.2c-0.3,0.2-0.8,0.2-1.3,0.1c-1.1-0.3-2.1-1-2.4-1.8c-0.7-1.8,0.4-4,1.5-6l0.1-0.2
		c8.2-16.1,10.8-33.6,7.6-50.6c-0.2-1.1-1.6-1.8-3.1-1.7c-1.5,0.1-2.6,1.1-2.4,2.2c3.1,16.4,0.6,33.2-7.3,48.7L195,284
		c-1.3,2.5-2.8,5.4-1.7,8.4c0.8,2.1,3.1,3.8,6,4.5c0.8,0.2,1.7,0.3,2.5,0.3c1.5,0,2.9-0.3,4-1c1.2-0.7,1.4-1.9,0.5-2.8
		C205.3,292.7,203.6,292.5,202.4,293.2z"/>
	<path id="XMLID_1_" fill="#FFEEFB" d="M228,319.9c-16.9,6.4-35.8,3.7-46.4-5.4c0,0-3.9,24.2,18.3,28.3
		C221.3,346.7,228,319.9,228,319.9z"/>
	<path fill="#9B917C" d="M398.4,182.8c0,0,0.7,0.5,1.8,1.4C399.7,183.6,399.1,183.1,398.4,182.8z"/>
	<path fill="#292968" d="M225.3,185c0,0,10.5-0.6,16.8-1c6.3-0.4,17.1,0.1,27.5,7c10.4,6.9,12.1,9.3,13.7,10.1c0,0-17-10.1-25-10.1
		c-7.9,0-25.2,7.5-29.7,6.7C224.1,197,223.7,187.8,225.3,185z"/>
	<path fill="#292968" d="M177.4,185c0,0-9.9-0.5-15.8-0.8c-5.9-0.3-16,0.3-25.8,7.3c-9.8,7.1-11.5,9.4-13,10.2
		c0,0,16.1-10.3,23.5-10.4c7.4-0.1,23.6,7.2,27.8,6.3C178.4,196.9,178.9,187.8,177.4,185z"/>
	<circle fill="#292968" cx="246.9" cy="226.8" r="13.1"/>
	<circle fill="#292968" cx="162.9" cy="226.8" r="13.5"/>
	<path fill-rule="evenodd" clip-rule="evenodd" fill="#3D3D9B" d="M326,245.2c0.3-7.8,0.7-17.1-3-30.4c-2.3,23-8,36.6-20,63.2
		c21.9-115.9-53.4-80.8-114.8-117.9c13.7,17.9,30.2,31.6,49.5,41.1c-30.6-1.4-70.8-22.9-120.5-64.6c-4.8,28.7-13.9,60.6-0.5,80.2
		c-19.5-9.5-14.2-43.6-10.9-86.7c-15.5,51.1-17.5,107.7,21,154.2c-14.6-3.4-28.7-15.6-42.3-36.6c8.9,29.6,24.2,52.7,40.8,74.8
		C78,287,58,234.1,54,178.3c2.6-100,17.4-117.5,89.9-157.7C304.7-33.4,372.2,117.4,326,245.2z"/>
	<path fill-rule="evenodd" clip-rule="evenodd" fill="#7474E2" d="M45.7,191.6c-0.5-4.5-1-9.1-1.3-13.7c-5.5-94.1,34.9-137,89-158.8
		c140.3-44.9,195.8,36.4,194.7,144c-18.1-52.6-49.8-45.8-93.4-80.6c24.7,44.2,89.5,42.7,76,123c-5.3-39.1-24.8-63.2-58.4-72.4
		c-20.5-5.7-39.4-18.9-56.4-39.5c14,64.2,82.3,25.8,102.6,100.1C257,120.5,166,178.2,153.5,75.1c-7.7,21.3-3.5,46.8,12.5,76.3
		c-34.5-24.4-40.3-58.2-17.6-101.4c-16.1,12.7-29.1,35.3-39.1,67.8c-0.8-30.5,10.4-57.4,33.7-80.9c-75.8,28-75.7,126.8-72.2,194.4
		C56.9,218.7,48.5,205.5,45.7,191.6z"/>
	<path fill-rule="evenodd" clip-rule="evenodd" fill="#7474E2" d="M60.8,194.7c-0.5-4.3-0.9-8.7-1.2-13.1
		C61.3,90.8,66,56.9,145.9,30c-53.1,13.2-80.3,71.7-81.6,175.6C62.7,202.1,61.6,198.4,60.8,194.7z"/>
	<path fill-rule="evenodd" clip-rule="evenodd" fill="#3D3D9B" d="M181.2,8.1c87.6-13.2,159,44.8,150.5,165.2
		c-6.7-4.4-8.2-44.9-29.7-58.2c-32.7-20.3-61.2-32.3-77.8-64c-2.8,18.9,3,39.1,17.5,60.6C203.8,89.3,180.6,50.3,181.2,8.1z"/>
	<path fill-rule="evenodd" clip-rule="evenodd" fill="#3D3D9B" d="M105.1,264.2c2.1,7.9,4.5,15.9,7.3,23.9
		c-5.3-10.1-9.9-21-13.5-32.8C101,258.4,103,261.4,105.1,264.2L105.1,264.2z M45.7,130.2c-8.3,62.7,15.7,95.1,11.4,149.5
		C52.8,333.4,32.9,385,80,440c-11-31.9-10.9-65.1,0.5-99.8c2,63.5,16,110.1,42.1,139.8c-11.5-38.2-15.4-70.9-11.5-98
		c4.7,59.9,41.2,59.7,35.2,86c-2.9,12.6,11.6,21.6,20.9,25.9c-20.2-13.2-8.5-13.3-13.8-44.3c-6.8-39.3-38.2-51-19.4-109.2
		c-4.1-8.5-7.8-16.9-11.3-25.1C87.6,280.7,72,234.4,68.6,185.8c-5-144.3,96.7-174.6,96.7-174.6s-31.3,7-49.4,16.1
		C83.4,43.8,53.4,71.5,45.7,130.2z M140.3,507.5L140.3,507.5L140.3,507.5L140.3,507.5z"/>
</g>
</svg>
