<?xml version="1.0" encoding="utf-8"?>
<!-- Generator: Adobe Illustrator 18.1.0, SVG Export Plug-In . SVG Version: 6.00 Build 0)  -->
<svg version="1.1" id="Layer_1" xmlns="http://www.w3.org/2000/svg" xmlns:xlink="http://www.w3.org/1999/xlink" x="0px" y="0px"
	 viewBox="0 0 500 500" enable-background="new 0 0 500 500" xml:space="preserve">
<g>
	<path fill="#FFFFFF" d="M146.6,302.2"/>
	<path fill="#FFFFFF" d="M134,314.8c-3.4,1.7-5.1,5.1-5.1,6.7l-10.2,45.5c0,0,0,1.8,0,3.4c1.7,5.1,6.7,8.4,11.8,6.7l45.5-10.2
		c3.3-1.7,5.1-3.4,6.7-5.1l11.8-11.8l-48-48L134,314.8z"/>
	<polygon fill="#FFFFFF" points="213.2,331.6 332.9,212 284.8,164 165.2,283.6 	"/>
	<path fill="#FFFFFF" d="M375.1,161.4l-38.8-38.8c-3.4-3.4-6.7-3.4-10.2,0l-22.7,22.7l48,48l23.6-23.6
		C378.4,166.4,378.4,163.1,375.1,161.4z"/>
	<path fill="#FFFFFF" d="M284.8,164"/>
</g>
</svg>
