<?xml version="1.0" encoding="utf-8"?>
<!-- Generator: Adobe Illustrator 18.1.0, SVG Export Plug-In . SVG Version: 6.00 Build 0)  -->
<svg version="1.1" id="Layer_1" xmlns="http://www.w3.org/2000/svg" xmlns:xlink="http://www.w3.org/1999/xlink" x="0px" y="0px"
	 viewBox="0 0 346.3 439.8" enable-background="new 0 0 346.3 439.8" xml:space="preserve">
<linearGradient id="Shape_1_" gradientUnits="userSpaceOnUse" x1="3.6426" y1="508.7296" x2="3.6426" y2="501.0726" gradientTransform="matrix(39.15 0 0 -28.0486 30.176 14273.7988)">
	<stop  offset="0" style="stop-color:#61F5E8"/>
	<stop  offset="0.48" style="stop-color:#60F3E9"/>
	<stop  offset="0.65" style="stop-color:#5BECEB"/>
	<stop  offset="0.77" style="stop-color:#54E1EE"/>
	<stop  offset="0.87" style="stop-color:#48D0F4"/>
	<stop  offset="0.96" style="stop-color:#3ABAFB"/>
	<stop  offset="1" style="stop-color:#31ACFF"/>
</linearGradient>
<path id="Shape" fill="url(#Shape_1_)" d="M303.8,219.4H41.9c-10.5,0-19-8.5-19-19v-45.9c0-82.8,67.2-149.9,150-149.8
	c60.2,0,114.5,36.1,138,91.5c7.8,18.5,11.8,38.3,11.8,58.3v45.9C322.7,210.9,314.2,219.4,303.8,219.4z M172.8,42.3
	C111,42.3,60.9,92.4,60.9,154.3v26.9h223.9v-26.9C284.8,92.4,234.6,42.3,172.8,42.3L172.8,42.3z"/>
<linearGradient id="Rectangle-15_1_" gradientUnits="userSpaceOnUse" x1="3.4136" y1="503.6416" x2="3.4136" y2="495.9846" gradientTransform="matrix(43.87 0 0 -36.32 23.106 18449.0508)">
	<stop  offset="0" style="stop-color:#61F5E8"/>
	<stop  offset="0.48" style="stop-color:#60F3E9"/>
	<stop  offset="0.65" style="stop-color:#5BECEB"/>
	<stop  offset="0.77" style="stop-color:#54E1EE"/>
	<stop  offset="0.8718" style="stop-color:#48DFF4"/>
	<stop  offset="0.9626" style="stop-color:#3ADFFB"/>
	<stop  offset="1" style="stop-color:#31D1FF"/>
</linearGradient>
<path id="Rectangle-15" fill="url(#Rectangle-15_1_)" d="M42.4,156.8h260.9c20.7,0,37.5,16.8,37.5,37.5v203.1
	c0,20.7-16.8,37.5-37.5,37.5H42.4c-20.7,0-37.5-16.8-37.5-37.5V194.3C4.9,173.6,21.7,156.8,42.4,156.8z"/>
<linearGradient id="Path-6_1_" gradientUnits="userSpaceOnUse" x1="-8.01" y1="503.6412" x2="-8.01" y2="495.9843" gradientTransform="matrix(4.84 0 0 -36.33 62.126 18454.0762)">
	<stop  offset="0" style="stop-color:#5FF5E8"/>
	<stop  offset="0.48" style="stop-color:#60F3E9"/>
	<stop  offset="0.65" style="stop-color:#5BECEB"/>
	<stop  offset="0.77" style="stop-color:#54E1EE"/>
	<stop  offset="1" style="stop-color:#48D0F4"/>
</linearGradient>
<path id="Path-6" fill="url(#Path-6_1_)" d="M41.9,156.8H31.4c-14.7,0-26.6,11.9-26.6,26.6v225c0,14.7,11.9,26.6,26.6,26.6
	c0,0,0,0,0,0h10.5V156.8z"/>
<linearGradient id="Path-7_1_" gradientUnits="userSpaceOnUse" x1="45.6855" y1="503.6412" x2="45.6855" y2="495.9843" gradientTransform="matrix(4.84 0 0 -36.33 101.166 18454.0762)">
	<stop  offset="0" style="stop-color:#ADF5E8"/>
	<stop  offset="0.48" style="stop-color:#60F3E9"/>
	<stop  offset="0.65" style="stop-color:#5BECEB"/>
	<stop  offset="0.77" style="stop-color:#54E1EE"/>
	<stop  offset="0.87" style="stop-color:#48D0F4"/>
	<stop  offset="0.96" style="stop-color:#3ABAFB"/>
	<stop  offset="1" style="stop-color:#31ACFF"/>
</linearGradient>
<path id="Path-7" fill="url(#Path-7_1_)" d="M303.8,156.8h10.5c14.7,0,26.6,11.9,26.6,26.6l0,0v225c0,14.7-11.9,26.6-26.6,26.6
	c0,0,0,0,0,0h-10.5V156.8z"/>
<linearGradient id="Path-8_1_" gradientUnits="userSpaceOnUse" x1="-0.6223" y1="506.4023" x2="-0.6223" y2="498.7454" gradientTransform="matrix(11.4 0 0 -11.4 55.566 5929.7749)">
	<stop  offset="0" style="stop-color:#FFFFFF"/>
	<stop  offset="1.000000e-02" style="stop-color:#FFFFFF;stop-opacity:0.98"/>
	<stop  offset="0.18" style="stop-color:#FFFFFF;stop-opacity:0.729"/>
	<stop  offset="0.34" style="stop-color:#FFFFFF;stop-opacity:0.51"/>
	<stop  offset="0.49" style="stop-color:#FFFFFF;stop-opacity:0.322"/>
	<stop  offset="0.64" style="stop-color:#FFFFFF;stop-opacity:0.18"/>
	<stop  offset="0.78" style="stop-color:#FFFFFF;stop-opacity:7.800000e-02"/>
	<stop  offset="0.9" style="stop-color:#FFFFFF;stop-opacity:2.000000e-02"/>
	<stop  offset="1" style="stop-color:#FFFFFF;stop-opacity:0"/>
</linearGradient>
<path id="Path-8" opacity="0.5" fill="url(#Path-8_1_)" enable-background="new    " d="M92.1,156.8H31.4
	c-14.7,0-26.6,11.9-26.6,26.6v60.7L92.1,156.8z"/>
<linearGradient id="Path-9_1_" gradientUnits="userSpaceOnUse" x1="1.7495" y1="504.6528" x2="1.7495" y2="496.9959" gradientTransform="matrix(20.16 0 0 -20.17 46.816 10335.6357)">
	<stop  offset="0" style="stop-color:#FFFFFF"/>
	<stop  offset="1.000000e-02" style="stop-color:#FFFFFF;stop-opacity:0.98"/>
	<stop  offset="0.18" style="stop-color:#FFFFFF;stop-opacity:0.729"/>
	<stop  offset="0.34" style="stop-color:#FFFFFF;stop-opacity:0.51"/>
	<stop  offset="0.49" style="stop-color:#FFFFFF;stop-opacity:0.322"/>
	<stop  offset="0.64" style="stop-color:#FFFFFF;stop-opacity:0.18"/>
	<stop  offset="0.78" style="stop-color:#FFFFFF;stop-opacity:7.800000e-02"/>
	<stop  offset="0.9" style="stop-color:#FFFFFF;stop-opacity:2.000000e-02"/>
	<stop  offset="1" style="stop-color:#FFFFFF;stop-opacity:0"/>
</linearGradient>
<path id="Path-9" opacity="0.5" fill="url(#Path-9_1_)" enable-background="new    " d="M4.9,311.2l154.4-154.4h-39L4.9,272.3V311.2
	z"/>
<linearGradient id="Path-10_1_" gradientUnits="userSpaceOnUse" x1="9.3318" y1="499.5254" x2="9.3318" y2="491.8685" gradientTransform="matrix(20.6 0 0 -20.6 69.636 10567.3789)">
	<stop  offset="0" style="stop-color:#54E1EE"/>
	<stop  offset="0.553" style="stop-color:#48D0F4"/>
	<stop  offset="0.8322" style="stop-color:#3ABAFB"/>
	<stop  offset="1" style="stop-color:#31ACFF"/>
</linearGradient>
<path id="Path-10" opacity="0.5" fill="url(#Path-10_1_)" enable-background="new    " d="M222,434.9l118.8-118.8v-39L183,434.9H222
	z"/>
<linearGradient id="Path-11_1_" gradientUnits="userSpaceOnUse" x1="21.0804" y1="489.4712" x2="21.0804" y2="481.7837" gradientTransform="matrix(10.05 0 0 -10 90.786 5252.7251)">
	<stop  offset="0" style="stop-color:#61F5E8"/>
	<stop  offset="0.48" style="stop-color:#60F3E9"/>
	<stop  offset="0.65" style="stop-color:#5BECEB"/>
	<stop  offset="0.77" style="stop-color:#54E1EE"/>
	<stop  offset="0.87" style="stop-color:#48D0F4"/>
	<stop  offset="0.96" style="stop-color:#3ABAFB"/>
	<stop  offset="1" style="stop-color:#31ACFF"/>
</linearGradient>
<path id="Path-11" opacity="0.5" fill="url(#Path-11_1_)" enable-background="new    " d="M340.7,358l-76.6,76.6h50.4
	c14.7,0,26.6-11.9,26.6-26.6l0,0L340.7,358z"/>
<linearGradient id="Path-12_1_" gradientUnits="userSpaceOnUse" x1="8.3008" y1="502.2093" x2="8.3008" y2="494.56" gradientTransform="matrix(12.34 0 0 -20.8489 70.397 10684.0977)">
	<stop  offset="0" style="stop-color:#31ACFF"/>
	<stop  offset="0.334" style="stop-color:#48D0F4"/>
	<stop  offset="0.6202" style="stop-color:#3AE6FB"/>
	<stop  offset="0.9299" style="stop-color:#54E1EE"/>
</linearGradient>
<path id="Path-12" fill="url(#Path-12_1_)" d="M220.1,260.8c0.1-26.1-21.1-47.3-47.1-47.3c-26.1-0.1-47.3,21.1-47.3,47.1
	c0,18.6,10.8,35.5,27.8,43.2v49.8c0,10.8,8.7,19.5,19.5,19.5c10.8,0,19.5-8.7,19.5-19.5v-49.8C209.3,296,220.1,279.3,220.1,260.8z"
	/>
</svg>
