<svg xmlns="http://www.w3.org/2000/svg" xmlns:xlink="http://www.w3.org/1999/xlink" width="153.937" height="199.976" viewBox="0 0 153.937 199.976">
  <defs>
    <linearGradient id="linear-gradient" x1="0.5" x2="0.5" y2="0.998" gradientUnits="objectBoundingBox">
      <stop offset="0" stop-color="#fdad2a"/>
      <stop offset="0.34" stop-color="#fdaa29"/>
      <stop offset="0.56" stop-color="#fca227"/>
      <stop offset="0.74" stop-color="#fa9322"/>
      <stop offset="0.91" stop-color="#f87e1c"/>
      <stop offset="1" stop-color="#f76f17"/>
    </linearGradient>
    <linearGradient id="linear-gradient-2" x1="0.5" x2="0.5" y2="1" gradientUnits="objectBoundingBox">
      <stop offset="0" stop-color="#918efe"/>
      <stop offset="0.48" stop-color="#918efe"/>
      <stop offset="0.65" stop-color="#908dfe"/>
      <stop offset="0.77" stop-color="#8d8afe"/>
      <stop offset="0.87" stop-color="#7f7cfd"/>
      <stop offset="1" stop-color="#7e7afd"/>
      <stop offset="1" stop-color="#432efb"/>
    </linearGradient>
    <linearGradient id="linear-gradient-3" x1="0.5" y1="1" x2="0.5" gradientUnits="objectBoundingBox">
      <stop offset="0" stop-color="#7b78fd"/>
      <stop offset="0.22" stop-color="#7673fd"/>
      <stop offset="0.429" stop-color="#7470fc"/>
      <stop offset="0.69" stop-color="#716dfc"/>
      <stop offset="0.892" stop-color="#6e6bfc"/>
      <stop offset="0.97" stop-color="#6c68fb"/>
      <stop offset="1" stop-color="#6b67fb"/>
    </linearGradient>
    <linearGradient id="linear-gradient-4" x1="0.5" x2="0.5" y2="1" gradientUnits="objectBoundingBox">
      <stop offset="0" stop-color="#908dfe"/>
      <stop offset="0.27" stop-color="#8f8cfe"/>
      <stop offset="0.48" stop-color="#8582fe"/>
      <stop offset="0.67" stop-color="#7c78fd"/>
      <stop offset="0.85" stop-color="#7874fd"/>
      <stop offset="1" stop-color="#6e6afc"/>
      <stop offset="1" stop-color="#432efb"/>
    </linearGradient>
    <linearGradient id="linear-gradient-5" x1="0.5" x2="0.5" y2="1" gradientUnits="objectBoundingBox">
      <stop offset="0" stop-color="#7e7afd"/>
      <stop offset="0.24" stop-color="#706cfc"/>
      <stop offset="0.67" stop-color="#6d69fc"/>
      <stop offset="1" stop-color="#6c68fb"/>
      <stop offset="1" stop-color="#432efb"/>
    </linearGradient>
  </defs>
  <g id="Group_17" data-name="Group 17" transform="translate(-107.55 -40.48)">
    <path id="Path" d="M0,0V33.74A10.091,10.091,0,0,0,9.907,43.83l30.371.467Z" transform="translate(180.818 77.376)" fill="url(#linear-gradient)"/>
    <circle id="Oval" cx="29.253" cy="29.253" r="29.253" transform="translate(114.938 122.65)" fill="#fff" opacity="0.23"/>
    <path id="Path-2" data-name="Path" d="M18.979,14.821a8.492,8.492,0,1,0-11.322,0A13.332,13.332,0,0,0,0,26.582H26.663A13.332,13.332,0,0,0,18.979,14.821Z" transform="translate(130.873 139.304)" fill="#fff"/>
    <rect id="Rectangle" width="40.335" height="6.185" rx="2.185" transform="translate(124.024 188.049)" fill="#fff"/>
    <path id="Path-3" data-name="Path" d="M0,7.388V192.546a7.388,7.388,0,0,0,7.388,7.388H146.493a7.388,7.388,0,0,0,7.388-7.388V44.227L113.574,0H7.43A7.388,7.388,0,0,0,0,7.388Z" transform="translate(107.55 40.494)" fill="url(#linear-gradient-2)"/>
    <path id="Path-4" data-name="Path" d="M113.532,0H7.388A7.388,7.388,0,0,0,0,7.388V70.961C12.638,78.9,26.1,86.43,42.458,81.6,74.542,72.164,70.3,51.416,90.109,31.121a76.848,76.848,0,0,1,33.966-19.573Z" transform="translate(107.592 40.48)" fill="url(#linear-gradient-3)"/>
    <path id="Path-5" data-name="Path" d="M0,0V33.683A10.091,10.091,0,0,0,9.907,43.774l30.371.467Z" transform="translate(221.124 40.48)" fill="url(#linear-gradient-4)"/>
    <ellipse id="Oval-2" data-name="Oval" cx="38.938" cy="38.938" rx="38.938" ry="38.938" transform="translate(145.545 87.406)" fill="#fff" opacity="0.285"/>
    <path id="Path-6" data-name="Path" d="M25.262,19.727a11.3,11.3,0,1,0-15.07,0A17.745,17.745,0,0,0,0,35.382H35.491A17.745,17.745,0,0,0,25.262,19.727Z" transform="translate(166.776 109.555)" fill="#fff"/>
    <path id="Path-7" data-name="Path" d="M153.824,0c-12.865,9.44-29.041,19.615-40.306,20.861-21.526,2.363-50.3-8.959-74.358,8.959S33.5,60.955,9.907,69.914C6.213,71.329,2.831,72.447,0,73.339V87.491a7.388,7.388,0,0,0,7.388,7.388H146.493a7.388,7.388,0,0,0,7.388-7.388Z" transform="translate(107.607 145.577)" fill="url(#linear-gradient-5)"/>
    <rect id="Rectangle-2" data-name="Rectangle" width="66.792" height="6.185" rx="2.185" transform="translate(151.087 196.379)" fill="#fff"/>
  </g>
</svg>
