<?xml version="1.0" encoding="utf-8"?>
<!-- Generator: Adobe Illustrator 18.1.0, SVG Export Plug-In . SVG Version: 6.00 Build 0)  -->
<svg version="1.1" id="Layer_1" xmlns="http://www.w3.org/2000/svg" xmlns:xlink="http://www.w3.org/1999/xlink" x="0px" y="0px"
	 viewBox="0 0 414 896" enable-background="new 0 0 414 896" xml:space="preserve">
<g>
	<path fill="#FFFFFF" stroke="#FFFFFF" stroke-miterlimit="10" d="M352.5,470.2c-6-12.6-17.5-18.8-35-18.8h-60.9
		c-9.6,0-17.4,7.8-17.4,17.4c0,9.6,7.8,17.4,17.4,17.4h60.9c3.1,0,5.7,2.6,5.7,5.7v48.4c0,3.1-2.6,5.7-5.7,5.7h-221
		c-3.1,0-5.7-2.6-5.7-5.7v-48.4c0-3.1,2.6-5.7,5.7-5.7h50.8c3.2,10.9,9.4,20.9,17.9,28.7c11.5,10.4,26.4,16.1,41.8,16.1
		c9.6,0,17.4-7.8,17.4-17.4c0-9.6-7.8-17.4-17.4-17.4c-14.1,0-25.8-10.6-27.3-24.6c-1.2-11.5-10.7-20.2-22.3-20.2H96.5
		c-22.3,0-40.5,18.2-40.5,40.5v48.4c0,22.3,18.2,40.5,40.5,40.5h221c2.4,0,4.8,0.1,7.2,0.1c2.3,0.1,4.4,0.1,6.5,0.1c0,0,0,0,0,0
		c6.3,0,12.8-0.4,18-3.6c5.9-3.6,8.9-9.9,8.9-18.8v-48.4C358,495.2,357.6,480.9,352.5,470.2z"/>
	<path fill="#FFFFFF" stroke="#FFFFFF" stroke-miterlimit="10" d="M160.9,377.6c4.6,0,9-1.8,12.3-5.1l16.5-16.5v89.1
		c0,9.6,7.8,17.4,17.4,17.4s17.4-7.8,17.4-17.4v-89.1l16.5,16.6c3.3,3.3,7.7,5.1,12.2,5.1c4.7,0,9.2-1.9,12.3-5.2
		c6.6-6.8,6.5-17.8-0.3-24.5L219.2,302c-3.3-3.3-7.6-5.1-12.3-5.1c-4.6,0-9,1.8-12.3,5.1l-46.1,46.1c-3.3,3.3-5.1,7.6-5,12.3
		c0,4.7,1.9,9,5.1,12.2C151.9,375.8,156.3,377.6,160.9,377.6z"/>
</g>
</svg>
