<?xml version="1.0" encoding="utf-8"?>
<!-- Generator: Adobe Illustrator 18.1.0, SVG Export Plug-In . SVG Version: 6.00 Build 0)  -->
<svg version="1.1" id="QR_CODE_ICON" xmlns="http://www.w3.org/2000/svg" xmlns:xlink="http://www.w3.org/1999/xlink" x="0px"
	 y="0px" viewBox="0 0 515 519" enable-background="new 0 0 515 519" xml:space="preserve">
<g id="Rectangle_138">
	<rect x="277.8" y="9.8" width="229.2" height="229.2"/>
</g>
<g id="Rectangle_144">
	<rect x="7" y="9.8" width="229.2" height="229.2"/>
</g>
<g id="Rectangle_145">
	<rect x="7" y="280.7" width="229.2" height="229.2"/>
</g>
<g id="Rectangle_146" transform="translate(151 185)">
	<g>
		<rect x="-102.3" y="137.3" width="145.8" height="145.8"/>
	</g>
	<g>
		<path fill="#FFFFFF" d="M43.5,283.2h-145.8V137.3H43.5V283.2z M-81.5,262.3H22.7V158.2H-81.5V262.3z"/>
	</g>
</g>
<g id="Rectangle_147" transform="translate(164 185)">
	<g>
		<rect x="-115.3" y="-133.5" width="145.8" height="145.8"/>
	</g>
	<g>
		<path fill="#FFFFFF" d="M30.5,12.3h-145.8v-145.8H30.5V12.3z M-94.5-8.5H9.7v-104.2H-94.5V-8.5z"/>
	</g>
</g>
<g id="Rectangle_148" transform="translate(164 198)">
	<g>
		<rect x="155.5" y="-146.5" width="145.8" height="145.8"/>
	</g>
	<g>
		<path fill="#FFFFFF" d="M301.3-0.7H155.5v-145.8h145.8V-0.7z M176.3-21.5h104.2v-104.2H176.3V-21.5z"/>
	</g>
</g>
<g id="Rectangle_142">
	<rect x="277.8" y="447.3" width="62.5" height="62.5"/>
</g>
<polygon points="444.5,384.8 444.5,447.3 382,447.3 382,509.8 507,509.8 507,489 507,447.3 507,384.8 "/>
<polygon points="361.2,301.5 361.2,364 298.7,364 298.7,426.5 423.7,426.5 423.7,405.7 423.7,364 423.7,301.5 "/>
<g id="Rectangle_143">
	<rect x="444.5" y="280.7" width="62.5" height="62.5"/>
</g>
<g id="Rectangle_151">
	<rect x="277.8" y="280.7" width="62.5" height="62.5"/>
</g>
</svg>
