<svg id="sun" xmlns="http://www.w3.org/2000/svg" width="33.969" height="33.965" viewBox="0 0 33.969 33.965">
  <path id="sun-2" data-name="sun" d="M16.981,33.965a2.667,2.667,0,0,1-2.222-1.187L12.079,28.8l-4.7.909a2.74,2.74,0,0,1-.519.05,2.683,2.683,0,0,1-2.625-3.195l.908-4.71L1.181,19.173a2.688,2.688,0,0,1,0-4.451l3.966-2.687-.908-4.71a2.685,2.685,0,0,1,.736-2.408,2.648,2.648,0,0,1,1.9-.79,2.758,2.758,0,0,1,.51.048l4.7.908,2.68-3.974a2.781,2.781,0,0,1,4.444,0l2.679,3.974,4.7-.908a2.594,2.594,0,0,1,.509-.05,2.685,2.685,0,0,1,2.629,3.2l-.909,4.71,3.966,2.687a2.723,2.723,0,0,1,1.188,2.236,2.679,2.679,0,0,1-1.181,2.222l-3.967,2.687.909,4.71a2.693,2.693,0,0,1-.736,2.408,2.641,2.641,0,0,1-2.407.736l-4.7-.909L19.2,32.784A2.678,2.678,0,0,1,16.981,33.965Zm0-23.881a6.9,6.9,0,1,0,6.9,6.9A6.906,6.906,0,0,0,16.981,10.084Z" transform="translate(0 0)"/>
</svg>
