<?xml version="1.0" encoding="utf-8"?>
<!-- Generator: Adobe Illustrator 18.1.0, SVG Export Plug-In . SVG Version: 6.00 Build 0)  -->
<svg version="1.1" id="Layer_1" xmlns="http://www.w3.org/2000/svg" xmlns:xlink="http://www.w3.org/1999/xlink" x="0px" y="0px"
	 viewBox="0 0 430.7 503.2" enable-background="new 0 0 430.7 503.2" xml:space="preserve">
<linearGradient id="Path-9_1_" gradientUnits="userSpaceOnUse" x1="6.0088" y1="506.6742" x2="6.0088" y2="501.5331" gradientTransform="matrix(81.2483 0 0 -95.4984 -273.2104 48392.6328)">
	<stop  offset="0" style="stop-color:#61F5E8"/>
	<stop  offset="0.48" style="stop-color:#60F3E9"/>
	<stop  offset="0.65" style="stop-color:#5BECEB"/>
	<stop  offset="0.77" style="stop-color:#54E1EE"/>
	<stop  offset="0.87" style="stop-color:#48D0F4"/>
	<stop  offset="0.96" style="stop-color:#3ABAFB"/>
	<stop  offset="1" style="stop-color:#31ACFF"/>
</linearGradient>
<path id="Path-9" fill="url(#Path-9_1_)" d="M423.4,139.4V139c0-4.7-0.4-9.7-0.5-15.4c-0.5-27.2-21.8-49.4-48.9-50.9
	c-56.6-3.1-100-21.5-137.3-57.9l-0.3-0.3c-12-11.1-30.6-11.1-42.7,0l-0.3,0.3C156.1,51.1,112.4,69.5,56,72.6
	C28.9,74.2,7.6,96.4,7.1,123.6c0,5.5,0,10.3-0.5,15.4v0.9C5.5,197.4,4.2,269,28.1,334c12.6,34.9,32.8,66.5,59.3,92.5
	c29.8,29.1,68.8,52.1,116,68.6c1.5,0.5,3.1,1,4.7,1.3c4.5,0.9,9.2,0.9,13.8,0c1.6-0.3,3.2-0.7,4.8-1.3
	c47.1-16.5,86.1-39.6,115.9-68.6c26.4-26,46.7-57.6,59.3-92.5C425.8,268.7,424.4,197,423.4,139.4z"/>
<linearGradient id="Path-10_1_" gradientUnits="userSpaceOnUse" x1="6.0682" y1="501.508" x2="6.0682" y2="506.6491" gradientTransform="matrix(78.414 0 0 -92.0851 -260.8664 46669.6172)">
	<stop  offset="0" style="stop-color:#61F5E8"/>
	<stop  offset="0.48" style="stop-color:#60F3E9"/>
	<stop  offset="0.65" style="stop-color:#5BECEB"/>
	<stop  offset="0.77" style="stop-color:#54E1EE"/>
	<stop  offset="0.87" style="stop-color:#48D0F4"/>
	<stop  offset="0.96" style="stop-color:#3ABAFB"/>
	<stop  offset="1" style="stop-color:#31ACFF"/>
</linearGradient>
<path id="Path-10" fill="url(#Path-10_1_)" d="M416,143.3v-0.4c0-4.5-0.4-9.4-0.4-14.7c-0.5-26.2-21.1-47.6-47.2-49.1
	c-54.4-3-96.6-20.6-132.5-55.9l-0.3-0.3c-11.6-10.7-29.5-10.7-41.1,0l-0.3,0.3C158.1,58.2,116,76,61.5,79.1
	c-26.2,1.5-46.8,22.9-47.2,49.1c0,5.1,0,10.3-0.4,14.7v0.9c-1.1,55.5-2.4,124.6,20.6,187.3c12.2,33.6,31.8,64,57.4,89
	c28.7,28.1,66.4,50.3,111.9,66.2c1.5,0.5,3,0.9,4.6,1.2c4.4,0.9,8.9,0.9,13.3,0c1.6-0.3,3.1-0.7,4.6-1.2
	c45.4-15.9,83.1-38.2,111.8-66.3c25.6-25,45.2-55.5,57.4-89.1C418.5,268.1,417.1,199.1,416,143.3z"/>
<linearGradient id="Path-11_1_" gradientUnits="userSpaceOnUse" x1="5.6556" y1="508.1325" x2="5.6556" y2="502.9914" gradientTransform="matrix(36.5937 0 0 -43.05 -99.5503 21893.291)">
	<stop  offset="0" style="stop-color:#FFFFFF"/>
	<stop  offset="1.000000e-02" style="stop-color:#FFFFFF;stop-opacity:0.98"/>
	<stop  offset="0.18" style="stop-color:#FFFFFF;stop-opacity:0.729"/>
	<stop  offset="0.34" style="stop-color:#FFFFFF;stop-opacity:0.51"/>
	<stop  offset="0.49" style="stop-color:#FFFFFF;stop-opacity:0.322"/>
	<stop  offset="0.64" style="stop-color:#FFFFFF;stop-opacity:0.18"/>
	<stop  offset="0.78" style="stop-color:#FFFFFF;stop-opacity:7.800000e-02"/>
	<stop  offset="0.9" style="stop-color:#FFFFFF;stop-opacity:2.000000e-02"/>
	<stop  offset="1" style="stop-color:#FFFFFF;stop-opacity:0"/>
</linearGradient>
<path id="Path-11" opacity="0.24" fill="url(#Path-11_1_)" enable-background="new    " d="M194.4,22.9l-0.3,0.3
	C158.1,58.2,116,76,61.5,79.1c-26.2,1.5-46.8,22.9-47.2,49.1c0,5.1,0,10.3-0.4,14.7v0.9c-1.1,31.9-0.5,63.9,1.7,95.7L201.5,18.2
	C198.9,19.4,196.5,21,194.4,22.9z"/>
<linearGradient id="Path-12_1_" gradientUnits="userSpaceOnUse" x1="5.9411" y1="507.3021" x2="5.9411" y2="502.1609" gradientTransform="matrix(48.91 0 0 -60.87 -145.9879 30897.5605)">
	<stop  offset="0" style="stop-color:#FFFFFF"/>
	<stop  offset="1.000000e-02" style="stop-color:#FFFFFF;stop-opacity:0.98"/>
	<stop  offset="0.18" style="stop-color:#FFFFFF;stop-opacity:0.729"/>
	<stop  offset="0.34" style="stop-color:#FFFFFF;stop-opacity:0.51"/>
	<stop  offset="0.49" style="stop-color:#FFFFFF;stop-opacity:0.322"/>
	<stop  offset="0.64" style="stop-color:#FFFFFF;stop-opacity:0.18"/>
	<stop  offset="0.78" style="stop-color:#FFFFFF;stop-opacity:7.800000e-02"/>
	<stop  offset="0.9" style="stop-color:#FFFFFF;stop-opacity:2.000000e-02"/>
	<stop  offset="1" style="stop-color:#FFFFFF;stop-opacity:0"/>
</linearGradient>
<path id="Path-12" opacity="0.24" fill="url(#Path-12_1_)" enable-background="new    " d="M34.6,331L270.3,50.3
	c-12.4-7.7-24-16.8-34.4-27.1l-0.3-0.3c-2.2-1.9-4.6-3.5-7.2-4.8L18.9,267.6C21.9,289.2,27.2,310.5,34.6,331z"/>
<linearGradient id="Path-13_1_" gradientUnits="userSpaceOnUse" x1="7.8644" y1="505.7065" x2="7.8644" y2="500.5653" gradientTransform="matrix(53.1589 0 0 -68.7885 -138.1884 34921.3633)">
	<stop  offset="0" style="stop-color:#31ACFF"/>
	<stop  offset="0.14" style="stop-color:#32ADFF;stop-opacity:0.988"/>
	<stop  offset="0.26" style="stop-color:#34B0FE;stop-opacity:0.941"/>
	<stop  offset="0.39" style="stop-color:#37B6FC;stop-opacity:0.871"/>
	<stop  offset="0.51" style="stop-color:#3CBDFA;stop-opacity:0.761"/>
	<stop  offset="0.63" style="stop-color:#43C7F6;stop-opacity:0.631"/>
	<stop  offset="0.75" style="stop-color:#4BD3F3;stop-opacity:0.459"/>
	<stop  offset="0.86" style="stop-color:#54E1EE;stop-opacity:0.271"/>
	<stop  offset="0.98" style="stop-color:#5FF2E9;stop-opacity:5.100000e-02"/>
	<stop  offset="1" style="stop-color:#61F5E8;stop-opacity:0"/>
</linearGradient>
<path id="Path-13" opacity="0.24" fill="url(#Path-13_1_)" enable-background="new    " d="M416,143.3v-0.4c0-2.8-0.1-5.6-0.3-8.3
	L143.2,458.9c19.2,11,39.3,20.2,60.3,27.4c1.5,0.5,3,0.9,4.6,1.2c4.4,0.9,8.9,0.9,13.3,0l1.1-0.3l189-225.2
	C417.5,220.4,416.8,179,416,143.3z"/>
<linearGradient id="Path-14_1_" gradientUnits="userSpaceOnUse" x1="12.9347" y1="501.8643" x2="12.9347" y2="496.7232" gradientTransform="matrix(26.85 0 0 -31.93 -12.9491 16330.4111)">
	<stop  offset="0" style="stop-color:#31ACFF"/>
	<stop  offset="0.14" style="stop-color:#32ADFF;stop-opacity:0.988"/>
	<stop  offset="0.26" style="stop-color:#34B0FE;stop-opacity:0.941"/>
	<stop  offset="0.39" style="stop-color:#37B6FC;stop-opacity:0.871"/>
	<stop  offset="0.51" style="stop-color:#3CBDFA;stop-opacity:0.761"/>
	<stop  offset="0.63" style="stop-color:#43C7F6;stop-opacity:0.631"/>
	<stop  offset="0.75" style="stop-color:#4BD3F3;stop-opacity:0.459"/>
	<stop  offset="0.86" style="stop-color:#54E1EE;stop-opacity:0.271"/>
	<stop  offset="0.98" style="stop-color:#5FF2E9;stop-opacity:5.100000e-02"/>
	<stop  offset="1" style="stop-color:#61F5E8;stop-opacity:0"/>
</linearGradient>
<path id="Path-14" opacity="0.24" fill="url(#Path-14_1_)" enable-background="new    " d="M265.3,470c26.8-12.6,51.3-29.5,72.7-50
	c25.6-25,45.2-55.5,57.4-89.1c3-8.3,5.7-16.6,7.9-25.1L265.3,470z"/>
<g id="Path-15" opacity="0.43" enable-background="new    ">
	<path fill="#FFFFFF" d="M215.5,447.7c-2,0-4-0.2-5.9-0.6c-1.4-0.3-2.8-0.7-4.1-1.1c-34.2-11.1-66.2-30-92.4-54.7
		c-21-20.6-37.4-46.2-47.4-73.8c-19.1-51.8-18-108.5-17.1-154.1l0-0.8l0-0.1c0.3-3.6,0.3-7.4,0.3-11.8c0.5-22.6,18.5-41.3,41-42.7
		c43.9-2.5,77.9-16.8,106.8-45c5.1-4.7,11.7-7.3,18.6-7.3s13.5,2.6,18.5,7.3c29,28.3,63,42.6,106.8,45c22.5,1.4,40.6,20.1,41,42.6
		c0,1.8,0.1,3.5,0.2,5.1c0.1,2.4,0.2,4.7,0.2,7v0.3c0.9,45.6,2,102.4-17.2,154.2c-10,27.7-26.4,53.2-47.4,73.8
		c-26.1,24.7-57.9,43.7-91.9,55c-1.3,0.5-2.7,0.8-4,1.1C219.5,447.5,217.5,447.7,215.5,447.7z M53.5,162.9v0.6
		c-0.9,45.2-2,101.5,16.8,152.3c9.8,27,25.7,51.8,46.2,71.9c25.7,24.1,57,42.6,90.6,53.5c1.2,0.4,2.3,0.7,3.5,1
		c3.3,0.7,6.7,0.7,9.9,0c1.2-0.2,2.3-0.5,3.4-0.9c33.4-11.1,64.5-29.7,90.1-53.8c20.4-20.1,36.4-45,46.1-71.9
		c18.8-50.9,17.7-107.2,16.9-152.4v-0.4c0-2.1-0.1-4.4-0.2-6.8c-0.1-1.7-0.1-3.4-0.2-5.2c-0.4-20-16.4-36.6-36.3-37.8
		c-45.1-2.5-80.1-17.2-110-46.4c-4.1-3.8-9.5-5.9-15.1-5.9s-11,2.1-15.1,5.9c-29.8,29.1-64.7,43.8-109.9,46.4
		c-19.9,1.2-35.9,17.8-36.3,37.8C53.9,155.2,53.9,159,53.5,162.9z"/>
</g>
</svg>
